<?xml version='1.0' encoding='UTF-8'?>
<svg xmlns="http://www.w3.org/2000/svg" version="1.1" width="155.089" height="120.279" viewBox="0 0 155.089 120.279">
  <g id="KT_tp_4" transform="translate(-588.869,-158.011)"><path id="path177" d="M 0,0 V 0 L 0.004,-0.001 Z" style="fill:#ffffff;fill-opacity:1;fill-rule:nonzero;stroke:none" transform="matrix(1.3333333,0,0,-1.3333333,710.2832,172.9308)"/>
    <path id="path179" d="M 0,0 C 0.001,0 0.001,-0.001 0.002,-0.001 V -0.002 Z" style="fill:#ffffff;fill-opacity:1;fill-rule:nonzero;stroke:none" transform="matrix(1.3333333,0,0,-1.3333333,719.45707,192.32213)"/>
    <path id="path181" d="m 0,0 c -0.001,0 -0.001,-0.001 -0.001,-0.001 v 0 z" style="fill:#ffffff;fill-opacity:1;fill-rule:nonzero;stroke:none" transform="matrix(1.3333333,0,0,-1.3333333,707.2532,204.05387)"/>
    <path id="path183" d="M 0,0 V 0 C -0.021,0.192 -0.121,0.359 -0.275,0.479 -0.738,0.833 -1.635,0.914 -3.082,1 -3.38,1.017 -3.705,1.024 -4.049,1.024 c -1.115,0 -2.443,-0.082 -3.787,-0.212 -0.49,4.688 -1.724,8.332 -2.877,10.862 0.211,0.333 0.414,0.67 0.603,1.013 1.271,2.326 2.051,4.833 2.057,7.085 -10e-4,1.501 -0.358,2.945 -1.316,4.041 -0.758,0.866 -1.641,1.514 -2.589,1.98 -0.128,2.826 -0.517,5.353 -1.072,7.383 -0.346,1.254 -0.749,2.32 -1.234,3.188 -0.242,0.435 -0.506,0.822 -0.82,1.162 -0.314,0.337 -0.684,0.639 -1.168,0.832 -0.406,0.158 -0.82,0.243 -1.286,0.304 -0.463,0.058 -0.972,0.085 -1.53,0.085 -2.254,-0.002 -5.338,-0.441 -8.569,-1.439 -1.367,-0.426 -2.758,-0.958 -4.112,-1.6 -0.753,1.07 -1.628,2.048 -2.659,2.842 -1.47,1.134 -3.262,1.893 -5.303,1.99 -0.111,0.005 -0.223,0.008 -0.334,0.008 -1.66,-0.001 -3.231,-0.6 -4.623,-1.547 -1.697,-1.158 -3.16,-2.837 -4.324,-4.765 -3.096,-0.011 -6.288,-0.174 -9.154,-0.504 -2.624,-0.306 -4.952,-0.73 -6.758,-1.349 -2.09,1.363 -4.417,2.484 -6.744,3.283 -2.566,0.876 -5.106,1.382 -7.327,1.385 -1.414,-0.004 -2.711,-0.199 -3.837,-0.742 h -0.001 c -0.873,-0.432 -1.552,-1.129 -2.138,-1.966 -0.871,-1.261 -1.542,-2.886 -2.022,-4.758 -0.476,-1.87 -0.75,-3.985 -0.75,-6.194 0,-2.941 0.494,-6.052 1.688,-8.946 -2.197,-3.827 -4.503,-9.379 -4.498,-16.593 0,-0.448 0.012,-0.892 0.029,-1.334 -1.715,-0.096 -3.365,-0.261 -4.67,-0.449 -0.676,-0.098 -1.435,-0.253 -2.037,-0.465 -0.301,-0.106 -0.562,-0.225 -0.76,-0.367 -0.193,-0.139 -0.34,-0.313 -0.342,-0.536 l 0.004,-0.055 c 0.032,-0.292 0.258,-0.488 0.555,-0.591 0.299,-0.107 0.691,-0.148 1.157,-0.149 0.451,0 0.972,0.041 1.536,0.109 1.36,0.163 2.995,0.303 4.709,0.393 0.245,-2.337 0.748,-4.582 1.531,-6.707 -1.277,-0.359 -2.449,-0.755 -3.241,-1.116 -0.637,-0.292 -1.084,-0.509 -1.387,-0.721 -0.299,-0.207 -0.473,-0.442 -0.471,-0.73 l 0.032,-0.234 0.006,-0.017 c 0.066,-0.166 0.206,-0.278 0.366,-0.34 0.162,-0.064 0.352,-0.087 0.555,-0.087 0.439,0 0.951,0.114 1.387,0.271 1.084,0.393 2.297,0.759 3.533,1.095 1.01,-2.186 2.359,-4.209 4.025,-6.052 -1.715,-0.931 -3.384,-1.951 -4.494,-2.817 -0.642,-0.503 -1.142,-0.909 -1.488,-1.264 -0.344,-0.355 -0.55,-0.664 -0.553,-0.997 -0.001,-0.151 0.047,-0.299 0.135,-0.436 0.118,-0.191 0.323,-0.286 0.537,-0.281 0.323,0.002 0.693,0.166 1.132,0.411 0.439,0.246 0.941,0.58 1.492,0.943 1.424,0.938 3.083,1.939 4.777,2.877 2.126,-1.982 4.667,-3.716 7.667,-5.131 6.465,-3.055 14.957,-4.734 25.737,-4.736 14.359,0.004 24.674,2.908 31.496,7.958 1.961,1.453 3.615,3.09 4.988,4.871 2.127,-0.776 4.471,-1.716 6.103,-2.576 0.992,-0.519 1.844,-0.826 2.432,-0.829 0.321,-0.003 0.604,0.106 0.714,0.376 l 0.044,0.224 c -0.007,0.342 -0.264,0.633 -0.662,0.964 -0.403,0.329 -0.975,0.695 -1.678,1.127 -1.193,0.732 -3.472,1.696 -5.703,2.493 0.488,0.772 0.93,1.566 1.318,2.382 0.65,1.368 1.16,2.795 1.543,4.267 1.441,-0.196 2.897,-0.448 4.229,-0.711 0.42,-0.083 0.975,-0.16 1.464,-0.16 0.282,0.001 0.542,0.025 0.754,0.096 0.206,0.068 0.393,0.207 0.423,0.435 v 0 l 0.007,0.118 c 0.003,0.319 -0.193,0.592 -0.558,0.809 -0.367,0.223 -0.92,0.425 -1.725,0.652 -0.988,0.278 -2.563,0.552 -4.166,0.748 0.287,1.622 0.437,3.29 0.437,4.996 0,0.716 -0.023,1.41 -0.057,2.088 1.644,0.165 3.27,0.286 4.589,0.351 0.712,0.035 1.453,0.084 2.029,0.199 0.289,0.059 0.535,0.133 0.725,0.241 0.185,0.104 0.332,0.268 0.332,0.483 z" style="fill:#231916;fill-opacity:1;fill-rule:nonzero;stroke:none" transform="matrix(1.3333333,0,0,-1.3333333,731.95253,224.07533)"/>
    <g id="kitty-bow-wiggle-main">
    <path id="path185" d="m 0,0 0.002,-0.002 c 0.467,-0.523 0.752,-1.389 0.752,-2.544 0.002,-1.14 -0.283,-2.516 -0.813,-3.91 -0.793,-2.093 -2.134,-4.226 -3.74,-5.778 -0.801,-0.778 -1.665,-1.411 -2.544,-1.841 -0.88,-0.431 -1.768,-0.661 -2.656,-0.661 -0.234,0 -0.469,0.016 -0.705,0.049 -0.925,0.129 -1.86,0.531 -2.753,1.172 -1.211,0.868 -2.311,2.189 -3.151,3.723 0.819,0.295 1.579,0.709 2.258,1.225 0.028,-0.017 0.051,-0.037 0.079,-0.054 v -10e-4 l -10e-4,10e-4 c 0.723,-0.438 1.522,-0.654 2.304,-0.653 1.396,-0.005 2.755,0.698 3.517,1.971 0.388,0.642 0.576,1.356 0.574,2.059 0,1.46 -0.795,2.864 -2.146,3.683 v 10e-4 c -10e-4,0.001 -0.003,0.001 -0.004,0.002 -0.003,0.002 -0.005,0.004 -0.008,0.005 v -0.001 c -0.32,0.2 -0.66,0.346 -1.006,0.453 -0.082,0.882 -0.298,1.722 -0.631,2.501 1.725,0.47 3.486,0.804 5.104,0.803 1.127,0 2.174,-0.156 3.104,-0.505 C -1.533,1.347 -0.716,0.813 0,0" style="fill:#e6002d;fill-opacity:1;fill-rule:nonzero;stroke:none" transform="matrix(1.3333333,0,0,-1.3333333,717.1868,194.31813)"/>
    <path id="path187" d="m 0,0 c -0.28,0.5 -0.432,1.093 -0.431,1.673 0,0.458 0.095,0.905 0.277,1.297 C 0.324,3.884 1.391,4.496 2.495,4.492 2.951,4.491 3.408,4.391 3.84,4.174 L 3.839,4.175 C 3.971,4.108 4.072,4.013 4.189,3.931 2.578,2.765 1.391,1.044 0.927,-0.972 0.551,-0.721 0.227,-0.404 0,0" style="fill:#e6002d;fill-opacity:1;fill-rule:nonzero;stroke:none" transform="matrix(1.3333333,0,0,-1.3333333,680.4108,193.01413)"/>
    <path id="path189" d="m 0,0 v 0.001 c 0.035,3.397 2.806,6.07 6.139,6.071 L 6.205,6.071 H 6.204 c 3.417,-0.043 6.133,-2.748 6.134,-6.135 v -0.07 C 12.307,-3.461 9.526,-6.209 6.133,-6.206 L 6.068,-6.205 C 2.738,-6.179 -0.007,-3.39 0,-0.071 Z" style="fill:#e6002d;fill-opacity:1;fill-rule:nonzero;stroke:none" transform="matrix(1.3333333,0,0,-1.3333333,684.37693,196.75373)"/>
    <path id="path191" d="M 0,0 0.013,-0.007 C 0.847,-0.512 1.28,-1.333 1.28,-2.122 1.279,-2.501 1.183,-2.875 0.97,-3.229 L 0.969,-3.231 c -0.423,-0.699 -1.14,-1.074 -1.938,-1.079 -0.316,10e-4 -0.639,0.087 -0.962,0.219 0.961,1.16 1.61,2.579 1.834,4.134 C -0.065,0.025 -0.03,0.019 0,0" style="fill:#e6002d;fill-opacity:1;fill-rule:nonzero;stroke:none" transform="matrix(1.3333333,0,0,-1.3333333,703.8548,198.4816)"/>
    </g>
    <path id="path193" d="M 0,0 C 2.951,0.918 5.841,1.315 7.729,1.313 8.192,1.313 8.593,1.289 8.904,1.249 9.203,1.213 9.418,1.155 9.495,1.125 9.501,1.122 9.591,1.061 9.712,0.909 9.935,0.64 10.235,0.116 10.515,-0.594 c 0.423,-1.066 0.816,-2.545 1.093,-4.291 0.152,-0.944 0.266,-1.971 0.344,-3.055 -0.594,0.085 -1.193,0.128 -1.797,0.128 C 8.022,-7.814 5.858,-8.28 3.832,-8.871 2.44,-7.172 0.394,-6.033 -1.927,-5.813 -2.282,-4.329 -2.807,-2.804 -3.515,-1.346 -2.365,-0.815 -1.179,-0.364 0,0" style="fill:#ffffff;fill-opacity:1;fill-rule:nonzero;stroke:none" transform="matrix(1.3333333,0,0,-1.3333333,696.222,177.94187)"/>
    <g id="kitty-bow-wiggle-side">
    <path id="path195" d="M 0,0 C 0.913,1.314 1.98,2.419 3.09,3.172 4.202,3.927 5.336,4.327 6.438,4.326 L 6.661,4.321 C 8.21,4.242 9.523,3.693 10.692,2.798 c 1.75,-1.338 3.125,-3.5 4.031,-5.821 0.291,-0.74 0.528,-1.495 0.723,-2.24 -0.588,-0.106 -1.158,-0.269 -1.699,-0.491 -0.357,0.358 -0.771,0.673 -1.25,0.915 l -0.002,0.001 c -0.697,0.351 -1.443,0.514 -2.173,0.514 C 8.558,-4.328 6.866,-5.261 6.026,-6.855 L 6.01,-6.89 C 5.699,-7.553 5.554,-8.271 5.554,-8.985 c 10e-4,-0.893 0.224,-1.784 0.666,-2.573 0.438,-0.786 1.103,-1.474 1.972,-1.91 0.114,-0.057 0.231,-0.102 0.346,-0.149 0.008,-0.608 0.082,-1.199 0.213,-1.77 -1.584,-0.445 -3.238,-0.739 -4.766,-0.734 -1.88,-0.001 -3.514,0.422 -4.675,1.356 -0.807,0.646 -1.377,1.456 -1.762,2.418 -0.383,0.961 -0.571,2.076 -0.571,3.274 C -3.031,-6.093 -1.835,-2.626 0,0" style="fill:#e6002d;fill-opacity:1;fill-rule:nonzero;stroke:none" transform="matrix(1.3333333,0,0,-1.3333333,669.97467,178.8032)"/>
    </g>
    <path id="path197" d="m 0,0 c 0,-1.641 -0.148,-3.222 -0.436,-4.745 -0.347,0.017 -0.677,0.027 -0.98,0.027 -0.097,0 -0.191,-0.001 -0.282,-0.003 -0.587,-0.012 -1.253,-0.024 -1.788,-0.114 -0.269,-0.046 -0.504,-0.11 -0.69,-0.214 -0.183,-0.1 -0.327,-0.266 -0.335,-0.483 L -4.512,-5.56 c -0.001,-0.335 0.248,-0.602 0.67,-0.766 0.428,-0.17 1.059,-0.272 1.942,-0.302 0.323,-0.011 0.673,-0.044 1.012,-0.067 -0.325,-1.153 -0.735,-2.267 -1.245,-3.336 -0.443,-0.929 -0.976,-1.819 -1.565,-2.683 -0.464,0.134 -0.901,0.252 -1.288,0.342 -0.712,0.166 -1.399,0.304 -1.92,0.305 -0.22,0 -0.412,-0.024 -0.572,-0.091 -0.159,-0.065 -0.29,-0.194 -0.328,-0.37 l -0.024,-0.211 c 0,-0.401 0.287,-0.684 0.715,-0.907 0.433,-0.229 1.042,-0.427 1.802,-0.672 0.099,-0.032 0.215,-0.072 0.319,-0.105 -2.206,-2.611 -5.184,-4.865 -9.092,-6.654 -5.957,-2.722 -14.051,-4.33 -24.539,-4.328 -13.989,-0.003 -23.682,2.929 -29.788,7.651 -0.329,0.254 -0.644,0.516 -0.953,0.781 0.458,0.227 0.913,0.448 1.358,0.653 0.528,0.244 0.936,0.486 1.221,0.726 0.281,0.239 0.453,0.481 0.457,0.749 0,0.092 -0.024,0.182 -0.066,0.265 -0.149,0.266 -0.464,0.358 -0.847,0.359 -0.489,-10e-4 -1.136,-0.154 -1.865,-0.446 -0.552,-0.222 -1.183,-0.504 -1.839,-0.814 -1.598,1.648 -2.867,3.463 -3.84,5.431 0.75,0.175 1.479,0.338 2.164,0.483 0.514,0.109 0.924,0.233 1.221,0.392 0.293,0.155 0.498,0.371 0.498,0.658 l -0.014,0.131 c -0.044,0.224 -0.203,0.398 -0.428,0.488 -0.223,0.092 -0.513,0.127 -0.888,0.127 -0.256,0 -0.55,-0.017 -0.888,-0.048 -0.736,-0.068 -1.593,-0.209 -2.482,-0.389 -0.736,1.917 -1.214,3.969 -1.457,6.134 0.316,0.004 0.63,0.008 0.942,0.008 0.861,0 1.711,-0.017 2.522,-0.057 0.149,-0.007 0.296,-0.011 0.441,-0.011 0.427,0 0.824,0.034 1.134,0.133 0.302,0.093 0.559,0.282 0.575,0.595 v 0 l 0.002,0.04 c 0.002,0.314 -0.187,0.583 -0.5,0.768 -0.314,0.189 -0.76,0.32 -1.346,0.403 -1.105,0.156 -2.424,0.221 -3.809,0.221 -0.039,0 -0.081,-10e-4 -0.121,-0.002 -0.016,0.414 -0.029,0.828 -0.029,1.248 0.005,8.78 3.689,14.796 6.047,18.205 0.445,0.644 0.285,1.526 -0.359,1.972 -0.643,0.446 -1.526,0.286 -1.971,-0.358 -0.037,-0.053 -0.078,-0.114 -0.116,-0.169 -0.542,1.924 -0.791,3.942 -0.79,5.89 -0.002,2.63 0.443,5.126 1.126,7.02 0.34,0.946 0.739,1.741 1.139,2.315 0.399,0.579 0.798,0.916 1.055,1.035 h -0.001 c 0.548,0.273 1.461,0.459 2.595,0.455 1.783,0.003 4.08,-0.432 6.408,-1.232 2.329,-0.798 4.698,-1.955 6.683,-3.338 0.394,-0.273 0.905,-0.33 1.347,-0.148 1.423,0.588 3.884,1.097 6.714,1.418 2.303,0.265 4.863,0.417 7.404,0.467 -0.85,-2.102 -1.353,-4.344 -1.356,-6.502 0.001,-1.432 0.221,-2.831 0.732,-4.114 0.509,-1.281 1.318,-2.444 2.451,-3.349 1.72,-1.371 3.896,-1.852 6.093,-1.852 1.864,0.002 3.776,0.347 5.569,0.865 1.412,-2.592 4.144,-4.375 7.292,-4.413 h 0.088 c 0.184,0 0.364,0.016 0.543,0.027 0.344,-0.696 0.735,-1.364 1.166,-1.989 0.846,-1.217 1.852,-2.279 2.987,-3.095 1.133,-0.815 2.404,-1.386 3.76,-1.576 0.341,-0.048 0.682,-0.071 1.02,-0.071 1.715,0 3.331,0.595 4.761,1.52 0.949,0.618 1.822,1.386 2.617,2.246 0.857,-2.19 1.681,-5.067 2.047,-8.612 C -1.334,3.723 -2.371,3.536 -3.152,3.349 -4.006,3.144 -4.845,2.932 -5.482,2.677 -5.801,2.548 -6.07,2.41 -6.269,2.246 -6.466,2.085 -6.603,1.884 -6.604,1.646 L -6.58,1.475 c 0.053,-0.202 0.197,-0.36 0.394,-0.447 0.198,-0.09 0.448,-0.124 0.757,-0.125 0.621,0.001 1.495,0.146 2.663,0.395 0.797,0.169 1.731,0.321 2.719,0.457 C -0.02,1.183 0,0.603 0,0" style="fill:#ffffff;fill-opacity:1;fill-rule:nonzero;stroke:none" transform="matrix(1.3333333,0,0,-1.3333333,718.02013,228.63653)"/>
    <g id="kitty-mouth-breathe">
    <path id="path199" d="m 0,0 c -1.281,-0.001 -2.328,-0.305 -3.09,-0.89 -0.764,-0.578 -1.187,-1.462 -1.18,-2.36 0,-0.521 0.134,-1.019 0.375,-1.447 0.363,-0.645 0.946,-1.124 1.624,-1.438 0.679,-0.314 1.464,-0.472 2.299,-0.473 1.117,10e-4 2.13,0.289 2.91,0.856 0.78,0.558 1.31,1.457 1.304,2.475 0.006,0.839 -0.357,1.714 -1.099,2.325 C 2.402,-0.338 1.344,0 0,0" style="fill:#231916;fill-opacity:1;fill-rule:nonzero;stroke:none" transform="matrix(1.3333333,0,0,-1.3333333,667.29627,238.2576)"/>
    <path id="path201" d="m 0,0 c -0.429,-0.316 -1.11,-0.541 -1.94,-0.54 -0.833,-0.002 -1.544,0.22 -1.994,0.541 -0.226,0.16 -0.388,0.34 -0.496,0.531 -0.105,0.191 -0.162,0.394 -0.164,0.642 0.008,0.423 0.156,0.753 0.538,1.058 0.386,0.3 1.062,0.549 2.087,0.548 C -0.893,2.779 -0.24,2.511 0.123,2.207 0.486,1.9 0.623,1.548 0.629,1.147 0.622,0.681 0.43,0.325 0,0" style="fill:#fff100;fill-opacity:1;fill-rule:nonzero;stroke:none" transform="matrix(1.3333333,0,0,-1.3333333,669.9212,244.15667)"/>
    </g>
    <path id="path203" d="m 0,0 c -2.557,0 -3.174,-2.739 -3.174,-4.558 0,-1.644 0.842,-3.497 3.072,-3.497 2.223,0 3.106,2.325 3.106,3.882 C 3.004,-2.615 2.559,0 0,0" style="fill:#231916;fill-opacity:1;fill-rule:nonzero;stroke:none" transform="matrix(1.3333333,0,0,-1.3333333,639.58267,228.30453)"/>
    <path id="path205" d="m 0,0 c -2.27,0 -3.04,-2.483 -3.04,-3.875 0,-2.447 1.038,-4.112 3.269,-4.112 1.75,0 2.842,1.958 2.842,3.949 C 3.071,-1.222 1.88,0 0,0" style="fill:#231916;fill-opacity:1;fill-rule:nonzero;stroke:none" transform="matrix(1.3333333,0,0,-1.3333333,693.75067,228.3944)"/>
    </g>
</svg>
